<svg width="932" height="897" viewBox="0 0 932 897" fill="none" xmlns="http://www.w3.org/2000/svg">
<path d="M517.847 0.180525C506.38 1.64719 470.78 18.4472 471.58 22.0472C471.98 23.5139 471.713 23.5139 470.38 22.3139C468.78 20.7139 464.78 21.5139 465.847 23.2472C466.247 23.7805 465.713 24.1805 464.78 24.0472C461.847 23.7805 443.847 32.8472 444.78 34.3139C445.18 35.1139 444.913 35.2472 444.247 34.8472C442.647 33.7805 373.18 67.9139 371.58 70.4472C371.047 71.2472 370.513 71.3805 370.513 70.8472C370.513 70.1805 368.913 70.5805 366.913 71.6472C364.78 72.7139 360.647 74.7139 357.58 75.9139C354.513 77.2472 352.113 78.7139 352.513 79.2472C352.78 79.7805 352.38 80.1805 351.447 80.1805C348.247 80.1805 330.647 89.1139 331.447 90.3139C331.847 91.1139 331.58 91.2472 330.78 90.7139C329.047 89.6472 321.18 93.7805 321.18 95.6472C321.18 96.1805 321.847 96.3139 322.78 95.7805C323.713 95.2472 323.847 95.3805 323.313 96.4472C322.513 97.6472 321.847 97.6472 320.513 96.5805C318.38 94.8472 306.113 100.314 307.447 102.314C307.847 103.114 307.58 103.247 306.913 102.847C305.047 101.647 290.247 109.114 291.58 110.447C292.113 111.114 291.58 111.381 290.513 111.247C286.647 110.714 285.047 111.247 285.98 112.847C286.513 113.647 286.38 113.914 285.447 113.381C283.847 112.447 274.513 116.447 274.513 118.181C274.513 118.847 273.98 119.114 273.313 118.581C272.647 118.181 271.047 118.847 269.98 120.047C268.78 121.114 267.847 121.781 267.847 121.381C267.847 120.314 248.647 130.047 247.58 131.781C247.047 132.581 246.513 132.847 246.513 132.314C246.513 131.247 240.247 134.047 225.18 141.914C218.913 145.247 213.58 147.914 213.18 147.914C212.78 147.914 208.513 150.047 203.847 152.581C199.047 155.114 194.38 157.247 193.313 157.381C192.247 157.647 191.047 158.314 190.647 158.981C190.247 159.647 188.38 160.714 186.647 161.247C184.913 161.781 181.313 163.514 178.647 165.114C173.98 167.781 173.98 167.914 177.18 168.447C179.047 168.714 190.38 168.581 202.513 168.181C221.313 167.647 226.113 166.981 235.847 164.047C242.113 162.047 248.38 160.314 249.847 160.047C253.447 159.514 289.313 149.514 294.513 147.647C295.58 147.247 298.113 146.714 299.98 146.447C301.98 146.181 305.18 145.247 307.313 144.447C309.447 143.514 311.447 142.714 311.847 142.714C312.247 142.581 316.247 141.647 320.78 140.714C325.713 139.647 328.78 138.314 328.247 137.514C327.847 136.714 328.113 136.581 329.047 137.114C331.313 138.581 372.38 127.114 370.247 125.647C369.047 124.847 369.447 124.714 371.313 125.114C373.847 125.914 391.98 122.047 397.847 119.381C399.313 118.847 406.247 116.981 413.18 115.247C420.113 113.514 426.513 111.781 427.18 111.381C427.98 110.981 429.447 110.581 430.513 110.314C432.38 110.047 438.113 108.581 455.18 103.781C459.58 102.447 463.58 101.514 463.98 101.647C464.38 101.647 470.647 99.9139 477.98 97.7805C485.18 95.6472 492.913 93.5139 495.18 93.1139C497.313 92.7139 502.647 91.2472 507.18 89.7805C511.58 88.4472 516.247 87.2472 517.58 87.2472C518.78 87.2472 519.847 86.7139 519.847 86.0472C519.847 85.3805 521.18 84.8472 522.913 84.9805C525.313 84.9805 541.58 80.8472 549.18 78.1805C550.247 77.7805 551.58 77.5139 551.98 77.6472C552.38 77.6472 557.447 76.3139 563.313 74.4472C569.047 72.7139 574.513 71.2472 575.447 71.2472C576.247 71.2472 578.647 70.5805 580.78 69.6472C582.78 68.8472 584.913 68.0472 585.447 68.0472C587.047 67.7805 588.247 65.9139 586.78 65.9139C585.98 65.9139 585.58 64.9805 586.113 63.6472C586.78 62.0472 586.513 61.7805 585.18 62.5805C584.113 63.2472 583.713 63.1139 584.247 62.1805C584.78 61.5139 584.78 59.9139 584.38 58.7139C583.713 56.8472 583.18 56.8472 581.447 58.1805C579.713 59.6472 579.58 59.6472 580.647 57.5139C581.713 55.6472 580.247 51.5139 573.847 38.5805C565.58 21.9139 561.713 16.0472 559.713 17.2472C559.18 17.6472 558.247 17.2472 557.713 16.4472C557.047 15.3805 557.447 15.1139 558.647 15.9139C559.713 16.4472 558.913 15.3805 556.913 13.3805C554.913 11.5139 552.647 9.91386 551.847 9.91386C551.18 9.91386 550.513 9.24719 550.513 8.31386C550.513 7.51386 550.113 7.11386 549.713 7.64719C549.18 8.04719 547.98 7.64719 546.913 6.58053C543.447 2.98053 525.713 -0.886142 517.847 0.180525ZM344.38 86.9805C344.78 87.6472 344.247 88.1805 343.18 88.1805C342.113 88.1805 341.58 87.6472 341.98 86.9805C342.38 86.4472 342.913 85.9139 343.18 85.9139C343.447 85.9139 343.98 86.4472 344.38 86.9805Z" fill="#5E3BE8"/>
<path d="M695.18 73.3801C684.646 75.9134 681.18 77.1134 681.18 78.1801C681.18 78.9801 680.38 79.2468 679.313 78.8468C675.98 77.5134 642.246 86.9801 643.446 88.9801C643.846 89.6467 642.913 89.7801 641.18 89.2467C639.313 88.7134 638.513 88.8467 638.913 89.5134C639.446 90.3134 638.38 90.5801 636.513 90.3134C634.78 89.9134 629.713 90.8467 625.313 92.4467C620.78 94.0467 615.98 95.2467 614.646 95.2467C613.18 95.2467 611.58 95.9134 611.18 96.5801C610.646 97.3801 609.846 97.6467 609.18 97.2467C608.513 96.8467 606.38 97.2467 604.246 98.1801C599.98 99.9134 600.646 99.6467 593.846 101.247C590.913 101.78 587.98 102.447 587.18 102.58C579.313 104.447 563.846 109.247 563.846 109.913C563.846 110.313 561.846 110.847 559.58 110.847C557.18 110.98 553.446 111.78 551.18 112.58C549.046 113.513 545.58 114.447 543.713 114.713C541.713 114.98 538.513 115.913 536.38 116.847C534.246 117.647 531.313 118.447 529.846 118.713C527.046 118.98 486.78 129.78 463.18 136.58C455.846 138.713 447.58 140.847 444.913 141.38C442.113 141.78 439.846 142.713 439.846 143.247C439.846 143.78 439.046 144.18 438.246 144.047C436.38 143.913 424.513 146.847 404.513 152.713C387.313 157.647 369.046 162.58 360.246 164.58C356.38 165.513 353.18 166.713 353.18 167.38C353.18 168.047 439.046 168.58 561.846 168.58C749.98 168.58 770.513 168.313 770.513 166.447C770.513 165.38 769.98 164.847 769.18 165.247C768.38 165.647 768.246 165.113 768.646 163.913C769.18 162.713 768.513 159.247 767.446 156.18C766.246 153.113 765.046 148.713 764.78 146.58C763.713 139.513 762.246 135.247 760.913 135.247C760.246 135.247 759.98 134.713 760.38 134.047C762.246 131.113 752.78 101.78 747.98 95.2467C737.313 80.4468 725.446 73.7801 708.78 73.1134C702.78 72.9801 696.646 72.9801 695.18 73.3801Z" fill="#5E3BE8"/>
<path d="M348.911 168.18C349.845 168.58 351.045 168.447 351.445 168.047C351.978 167.647 351.178 167.247 349.711 167.38C348.245 167.38 347.845 167.78 348.911 168.18Z" fill="black"/>
<path d="M43.8461 208.58C32.7794 210.447 19.8461 216.18 19.8461 219.38C19.8461 220.18 19.3127 220.447 18.6461 220.047C18.1127 219.647 16.1127 220.847 14.5127 222.58C12.7794 224.447 11.7127 225.914 12.1127 225.914C12.5127 225.914 11.1794 227.78 9.04608 230.047C6.91274 232.314 5.17941 234.847 5.17941 235.647C5.17941 236.447 3.97941 239.514 2.51274 242.58C-0.153924 248.047 -0.153924 250.047 0.112743 553.38L0.512743 858.581L4.51274 866.314C6.64608 870.447 8.91274 873.914 9.44608 873.914C9.97941 873.914 10.5127 874.714 10.5127 875.647C10.5127 878.447 19.4461 886.314 21.3127 885.247C22.3794 884.447 22.6461 884.714 21.8461 885.914C21.0461 887.247 21.3127 887.514 23.0461 886.847C24.3794 886.314 25.0461 886.447 24.5127 887.247C23.1794 889.381 29.7127 892.581 39.3127 894.581C47.3127 896.314 101.846 896.581 439.179 896.581C869.179 896.581 838.913 897.114 854.113 888.447C858.246 886.047 860.779 883.781 860.379 882.981C859.846 882.181 860.113 881.914 860.779 882.314C861.579 882.847 863.579 881.114 865.313 878.581C867.046 876.047 869.046 873.914 869.713 873.914C870.379 873.914 870.113 872.981 869.179 871.914C867.713 870.181 867.846 870.047 869.446 870.581C871.579 871.381 876.379 862.581 875.046 860.314C874.513 859.514 874.646 859.247 875.446 859.647C877.979 861.247 878.513 846.047 878.513 772.447L878.379 699.247H718.779C588.779 699.247 557.579 698.847 550.513 697.38C545.713 696.314 541.446 695.78 540.913 696.18C540.246 696.447 539.846 696.18 539.846 695.514C539.846 694.847 537.579 693.647 534.646 692.847C529.179 691.114 511.046 679.78 507.979 676.18C507.046 674.98 505.713 674.314 505.046 674.714C504.379 675.114 503.979 674.98 504.113 674.314C504.379 673.647 501.713 669.914 498.246 665.914C490.113 656.447 484.513 645.514 480.779 632.047C477.979 621.514 477.846 619.38 477.846 549.247V477.247L481.713 465.914C483.846 459.647 485.979 454.047 486.646 453.38C487.313 452.58 487.846 450.98 487.846 449.647C487.846 448.314 488.513 447.247 489.313 447.247C489.979 447.247 490.246 446.58 489.846 445.914C489.446 445.114 489.579 444.58 490.379 444.58C491.179 444.58 492.646 442.98 493.579 441.114C496.779 434.847 512.246 420.58 521.579 414.98C526.646 411.914 535.046 407.914 540.246 406.047L549.846 402.58L714.246 402.18L878.646 401.914L878.246 324.181L877.846 246.58L873.579 237.514C871.313 232.58 868.379 228.18 867.179 227.78C865.979 227.247 864.379 225.38 863.713 223.647C862.913 221.38 861.846 220.58 860.379 221.114C859.313 221.514 858.646 221.38 859.046 220.714C860.246 218.847 855.446 215.38 846.379 211.647L837.846 207.914L443.846 207.78C227.179 207.78 47.1794 208.18 43.8461 208.58ZM21.4461 227.514C20.2461 228.714 19.4461 228.714 18.2461 227.38C16.7794 226.047 17.0461 225.914 19.0461 226.714C21.1794 227.514 21.4461 227.247 20.6461 225.114C19.8461 223.114 19.9794 222.847 21.3127 224.18C22.6461 225.514 22.6461 226.314 21.4461 227.514ZM501.313 672.18C503.046 674.314 502.913 674.447 500.913 672.714C498.646 670.98 497.979 669.914 499.046 669.914C499.313 669.914 500.379 670.98 501.313 672.18ZM9.31274 870.314C7.97941 871.514 7.84608 871.381 8.64608 869.514C9.04608 868.181 9.84608 867.514 10.2461 867.914C10.6461 868.314 10.2461 869.381 9.31274 870.314Z" fill="black"/>
<path d="M881.179 440.447C881.179 440.847 807.579 441.247 717.446 441.247C558.112 441.247 553.712 441.381 549.579 443.781C547.179 445.247 545.579 446.847 545.979 447.381C546.246 447.914 545.312 448.047 543.846 447.647C542.246 447.247 541.179 447.647 541.179 448.714C541.179 449.647 540.779 449.914 540.379 449.514C539.846 448.981 537.712 449.914 535.579 451.381C532.512 453.647 531.979 454.581 533.312 456.047C534.246 457.114 534.512 458.314 533.979 458.847C533.579 459.247 533.179 458.981 533.179 458.181C533.179 457.247 532.246 456.581 531.179 456.581C528.912 456.581 526.246 461.114 527.579 462.581C528.112 463.247 527.712 463.247 526.779 462.714C524.646 461.381 519.046 473.381 517.179 483.381C515.312 492.847 515.446 609.781 517.312 617.914C518.112 621.247 519.579 624.447 520.646 624.981C521.846 625.647 522.379 627.114 521.846 628.714C520.779 631.781 527.312 642.314 529.312 641.114C529.979 640.714 530.379 641.114 530.246 642.047C529.446 645.247 543.579 655.114 552.912 657.914C561.712 660.581 563.846 660.581 727.179 660.314C884.512 659.914 892.779 659.781 898.912 657.381C902.379 656.047 907.179 653.114 909.446 650.714C911.846 648.447 913.179 647.514 912.512 648.581C911.979 649.647 913.312 648.847 915.579 646.714C917.846 644.581 919.446 642.314 919.046 641.647C918.646 640.981 919.046 640.714 920.112 640.847C921.046 641.114 921.712 640.447 921.579 639.514C921.312 638.714 921.712 637.914 922.512 637.914C923.179 637.914 925.446 634.447 927.446 630.181L931.179 622.581V549.914V477.247L927.312 469.647C922.246 459.647 918.646 455.647 916.912 458.181C916.112 459.381 915.979 458.981 916.512 456.981C917.046 454.981 916.512 453.647 914.779 452.714C913.312 451.914 911.712 451.781 911.179 452.314C910.512 452.847 910.512 452.581 911.046 451.647C911.446 450.714 910.779 449.781 909.179 449.247C907.712 448.847 906.512 447.781 906.512 446.981C906.512 446.314 905.579 446.047 904.379 446.447C903.312 446.847 902.646 446.714 903.046 446.047C903.446 445.514 901.179 444.181 898.112 443.247C891.046 440.981 881.179 439.381 881.179 440.447ZM663.979 518.847C667.846 520.581 675.046 528.981 677.046 534.314C678.646 538.581 679.179 562.314 677.846 567.914C677.179 570.047 675.579 573.647 673.979 575.914C672.512 578.047 671.312 580.181 671.579 580.581C671.712 580.981 671.446 581.247 670.912 581.381C668.646 581.514 662.646 584.981 663.046 585.781C663.846 587.114 656.246 587.781 642.512 587.781C626.779 587.647 619.446 586.981 621.312 585.781C622.246 585.247 621.846 584.581 619.979 583.914C616.646 582.847 608.912 573.781 607.979 569.514C607.579 567.914 607.179 559.381 607.179 550.447C607.179 534.714 607.312 534.314 611.179 529.114C620.112 517.247 624.512 515.647 645.312 516.714C653.712 517.114 662.112 518.047 663.979 518.847Z" fill="#5E3BE8"/>
</svg>
